<svg id="elNB1Swo56M1" xmlns="http://www.w3.org/2000/svg" xmlns:xlink="http://www.w3.org/1999/xlink" viewBox="0 0 711 400" shape-rendering="geometricPrecision" text-rendering="geometricPrecision" project-id="75fa7d26b1b045f1aac32795f20f22e4" export-id="ef62f1f762a84fa8ba05e16c32fbe2d0" cached="false"><g transform="matrix(.314816 0 0 0.41006 144.325347 243.684767)"><path d="M223.42,282.11c-.51,22.94,10,67.83,18.31,77.24s26.34,9,21.9,11.66c-9.75,5.93-24.77-3.66-43.5,2.58-25.52,8.51-29.82-1.34-39.58-.57s-22.94,1.79-36.29-.79c-5.41-1,5.19-4.79,16.78-7s22.6-56.3,25-89.19s39.04-21.04,37.38,6.07Z" fill="#040201"/><path d="M254.36,216.42c19.22,50.75,49.3,92.84,70.68,103.36s-28.34,3.07-55.1-9.84c-7.07-4-7.26,25.84-13.38,26.16s-49.32-29.78-56.56-29.1-47.4,24.09-54.9,21.8c-7.41-.77,4.29-20.89-2.23-22.18s-58.47,16.98-71.77,12.78c-11.37-3.6,52.44-6.08,88.35-107.33s47.55-106.23,51.31-104.7s21.9,51.76,43.6,109.05Z" fill="#040201"/><path d="M314.62,240.79c-20.21-14.89-71.17-36.66-91-126.45-7.41-33.25-20.23-46.45-23.62-43.58s-15.3,36.57-32.87,79.73c-22.66,55.64-66.26,83.61-66.53,86.61-.29,3.15,14.19,8.62,62-16.34c4.23-.87-10.34,22.36-5.78,25.8s39.54-24.57,46.86-24.18s27.69,24.24,39.73,30.24-7-32.82.31-30.14s59.28,26.61,70.9,18.31Z" fill="#040201"/><path d="M203.93,35.1c9.57.73,15.51,77.58,76.85,144.91c5,5.45-35.43-5.7-51.23-20.24-7.72,15.7-10.07,43.36-24.6,3.51-44,30.12-46.62,25.92-37.45,1.26-36.4,16.48-43.89,12.41-41,10.91C173.72,151,198.57,34.69,203.93,35.1Z" fill="#040201"/></g><g transform="matrix(.477699 0 0 0.587703 17.022499 179.372267)"><path d="M223.42,282.11c-.51,22.94,10,67.83,18.31,77.24s26.34,9,21.9,11.66c-9.75,5.93-24.77-3.66-43.5,2.58-25.52,8.51-29.82-1.34-39.58-.57s-22.94,1.79-36.29-.79c-5.41-1,5.19-4.79,16.78-7s22.6-56.3,25-89.19s39.04-21.04,37.38,6.07Z" fill="#070503"/><path d="M254.36,216.42c19.22,50.75,49.3,92.84,70.68,103.36s-28.34,3.07-55.1-9.84c-7.07-4-7.26,25.84-13.38,26.16s-49.32-29.78-56.56-29.1-47.4,24.09-54.9,21.8c-7.41-.77,4.29-20.89-2.23-22.18s-58.47,16.98-71.77,12.78c-11.37-3.6,52.44-6.08,88.35-107.33s47.55-106.23,51.31-104.7s21.9,51.76,43.6,109.05Z" fill="#070503"/><path d="M314.62,240.79c-20.21-14.89-71.17-36.66-91-126.45-7.41-33.25-20.23-46.45-23.62-43.58s-15.3,36.57-32.87,79.73c-22.66,55.64-66.26,83.61-66.53,86.61-.29,3.15,14.19,8.62,62-16.34c4.23-.87-10.34,22.36-5.78,25.8s39.54-24.57,46.86-24.18s27.69,24.24,39.73,30.24-7-32.82.31-30.14s59.28,26.61,70.9,18.31Z" fill="#070503"/><path d="M203.93,35.1c9.57.73,15.51,77.58,76.85,144.91c5,5.45-35.43-5.7-51.23-20.24-7.72,15.7-10.07,43.36-24.6,3.51-44,30.12-46.62,25.92-37.45,1.26-36.4,16.48-43.89,12.41-41,10.91C173.72,151,198.57,34.69,203.93,35.1Z" fill="#070503"/></g><g transform="matrix(.376071 0 0 0.486555 88.211402 216.532247)"><path d="M223.42,282.11c-.51,22.94,10,67.83,18.31,77.24s26.34,9,21.9,11.66c-9.75,5.93-24.77-3.66-43.5,2.58-25.52,8.51-29.82-1.34-39.58-.57s-22.94,1.79-36.29-.79c-5.41-1,5.19-4.79,16.78-7s22.6-56.3,25-89.19s39.04-21.04,37.38,6.07Z" fill="#070301"/><path d="M254.36,216.42c19.22,50.75,49.3,92.84,70.68,103.36s-28.34,3.07-55.1-9.84c-7.07-4-7.26,25.84-13.38,26.16s-49.32-29.78-56.56-29.1-47.4,24.09-54.9,21.8c-7.41-.77,4.29-20.89-2.23-22.18s-58.47,16.98-71.77,12.78c-11.37-3.6,52.44-6.08,88.35-107.33s47.55-106.23,51.31-104.7s21.9,51.76,43.6,109.05Z" fill="#070301"/><path d="M314.62,240.79c-20.21-14.89-71.17-36.66-91-126.45-7.41-33.25-20.23-46.45-23.62-43.58s-15.3,36.57-32.87,79.73c-22.66,55.64-66.26,83.61-66.53,86.61-.29,3.15,14.19,8.62,62-16.34c4.23-.87-10.34,22.36-5.78,25.8s39.54-24.57,46.86-24.18s27.69,24.24,39.73,30.24-7-32.82.31-30.14s59.28,26.61,70.9,18.31Z" fill="#070301"/><path d="M203.93,35.1c9.57.73,15.51,77.58,76.85,144.91c5,5.45-35.43-5.7-51.23-20.24-7.72,15.7-10.07,43.36-24.6,3.51-44,30.12-46.62,25.92-37.45,1.26-36.4,16.48-43.89,12.41-41,10.91C173.72,151,198.57,34.69,203.93,35.1Z" fill="#070301"/></g><g transform="matrix(.454126 0 0 0.565023-63.583739 189.084558)"><path d="M223.42,282.11c-.51,22.94,10,67.83,18.31,77.24s26.34,9,21.9,11.66c-9.75,5.93-24.77-3.66-43.5,2.58-25.52,8.51-29.82-1.34-39.58-.57s-22.94,1.79-36.29-.79c-5.41-1,5.19-4.79,16.78-7s22.6-56.3,25-89.19s39.04-21.04,37.38,6.07Z" fill="#120c07"/><path d="M254.36,216.42c19.22,50.75,49.3,92.84,70.68,103.36s-28.34,3.07-55.1-9.84c-7.07-4-7.26,25.84-13.38,26.16s-49.32-29.78-56.56-29.1-47.4,24.09-54.9,21.8c-7.41-.77,4.29-20.89-2.23-22.18s-58.47,16.98-71.77,12.78c-11.37-3.6,52.44-6.08,88.35-107.33s47.55-106.23,51.31-104.7s21.9,51.76,43.6,109.05Z" fill="#120c07"/><path d="M314.62,240.79c-20.21-14.89-71.17-36.66-91-126.45-7.41-33.25-20.23-46.45-23.62-43.58s-15.3,36.57-32.87,79.73c-22.66,55.64-66.26,83.61-66.53,86.61-.29,3.15,14.19,8.62,62-16.34c4.23-.87-10.34,22.36-5.78,25.8s39.54-24.57,46.86-24.18s27.69,24.24,39.73,30.24-7-32.82.31-30.14s59.28,26.61,70.9,18.31Z" fill="#120c07"/><path d="M203.93,35.1c9.57.73,15.51,77.58,76.85,144.91c5,5.45-35.43-5.7-51.23-20.24-7.72,15.7-10.07,43.36-24.6,3.51-44,30.12-46.62,25.92-37.45,1.26-36.4,16.48-43.89,12.41-41,10.91C173.72,151,198.57,34.69,203.93,35.1Z" fill="#120c07"/></g><g transform="matrix(.376071 0 0 0.486555-9.893182 218.416545)"><path d="M223.42,282.11c-.51,22.94,10,67.83,18.31,77.24s26.34,9,21.9,11.66c-9.75,5.93-24.77-3.66-43.5,2.58-25.52,8.51-29.82-1.34-39.58-.57s-22.94,1.79-36.29-.79c-5.41-1,5.19-4.79,16.78-7s22.6-56.3,25-89.19s39.04-21.04,37.38,6.07Z"/><path d="M254.36,216.42c19.22,50.75,49.3,92.84,70.68,103.36s-28.34,3.07-55.1-9.84c-7.07-4-7.26,25.84-13.38,26.16s-49.32-29.78-56.56-29.1-47.4,24.09-54.9,21.8c-7.41-.77,4.29-20.89-2.23-22.18s-58.47,16.98-71.77,12.78c-11.37-3.6,52.44-6.08,88.35-107.33s47.55-106.23,51.31-104.7s21.9,51.76,43.6,109.05Z"/><path d="M314.62,240.79c-20.21-14.89-71.17-36.66-91-126.45-7.41-33.25-20.23-46.45-23.62-43.58s-15.3,36.57-32.87,79.73c-22.66,55.64-66.26,83.61-66.53,86.61-.29,3.15,14.19,8.62,62-16.34c4.23-.87-10.34,22.36-5.78,25.8s39.54-24.57,46.86-24.18s27.69,24.24,39.73,30.24-7-32.82.31-30.14s59.28,26.61,70.9,18.31Z"/><path d="M203.93,35.1c9.57.73,15.51,77.58,76.85,144.91c5,5.45-35.43-5.7-51.23-20.24-7.72,15.7-10.07,43.36-24.6,3.51-44,30.12-46.62,25.92-37.45,1.26-36.4,16.48-43.89,12.41-41,10.91C173.72,151,198.57,34.69,203.93,35.1Z"/></g><path d="M-17.898666,381.947679L711,393.450981c31.252371,5.470324,28.471919,8.779038-.000001,7.242275h-711.000001c-52.846309-2.436133-128.840389,7.012864-17.898664-18.745577Z" transform="translate(.000002 0.000001)" stroke-width="1.422"/></svg>
